<svg xmlns="http://www.w3.org/2000/svg" xmlns:xlink="http://www.w3.org/1999/xlink" viewBox="0 0 446.07 39.68"><defs><style>.cls-1{fill:none;}.cls-2{clip-path:url(#clip-path);}.cls-3{fill:#fff;}.cls-4{clip-path:url(#clip-path-2);}</style><clipPath id="clip-path" transform="translate(0.1 -0.31)"><rect class="cls-1" width="446.43" height="40.45"/></clipPath><clipPath id="clip-path-2" transform="translate(0.1 -0.31)"><rect class="cls-1" y="0.26" width="446.43" height="39.94"/></clipPath></defs><g id="Layer_2" data-name="Layer 2"><g id="Assets"><g class="cls-2"><path class="cls-3" d="M11.16,39.38h8.4V8.14H30.77V.82H-.1V8.14H11.11V39.38Z" transform="translate(0.1 -0.31)"/></g><path class="cls-3" d="M44.44,23.14h16.8V39.38h8.39V.82H61.24v14.8H44.44V.82H36V39.38h8.44Z" transform="translate(0.1 -0.31)"/><path class="cls-3" d="M86.89,7.94h7.78a7,7,0,0,1,4.82,1.63,5.49,5.49,0,0,1,1.74,4.2A5.4,5.4,0,0,1,99.49,18a6.85,6.85,0,0,1-4.82,1.64H86.89Zm0,18.17h5.94l8.65,13.27h9.73l-9.73-14.44a12.43,12.43,0,0,0,5.94-4.46,12.21,12.21,0,0,0,2.2-7.17,11.59,11.59,0,0,0-3.84-9,14.41,14.41,0,0,0-10-3.48H78.49V39.38h8.45l0-13.27Z" transform="translate(0.1 -0.31)"/><path class="cls-3" d="M168.1,10.45l5.32,14.18H162.67Zm-7.79,20.84h15.42l3.07,8.09h9.27L172.4.82h-8.35L148.38,39.38h8.81Z" transform="translate(0.1 -0.31)"/><path class="cls-3" d="M195.23,39.38h8.4V8.14h11.16V.82H183.92V8.14h11.21V39.38Z" transform="translate(0.1 -0.31)"/><path class="cls-3" d="M249.46,31.9H230.61V.82h-8.44V39.38h27.29Z" transform="translate(0.1 -0.31)"/><g class="cls-4"><path class="cls-3" d="M286.37,5.94a19.24,19.24,0,0,0-8.85-5l1.89,9.68a12.9,12.9,0,0,1,1,.87,11.78,11.78,0,0,1,3.38,8.6A12.37,12.37,0,0,1,282.38,26c0,.05-.05.05-.05.1a12,12,0,0,1-1.95,2.67,12.06,12.06,0,0,1-16.95,0,12.31,12.31,0,0,1-1.94-2.67c-.05,0-.05-.1-.1-.15a12.75,12.75,0,0,1-1.33-5.84,11.81,11.81,0,0,1,3.37-8.6c.31-.31.62-.61.93-.87L266.25,1a19.06,19.06,0,0,0-8.7,5.07,19.12,19.12,0,0,0-5.89,14.19,19.07,19.07,0,0,0,5.73,14,19.54,19.54,0,0,0,14.34,5.63,20,20,0,0,0,14.49-5.79A19,19,0,0,0,292.11,20a18.89,18.89,0,0,0-5.74-14" transform="translate(0.1 -0.31)"/></g><g class="cls-4"><path class="cls-3" d="M322.93,39.17a21.11,21.11,0,0,0,4.35-1.64,17.15,17.15,0,0,0,3-2.1,14.69,14.69,0,0,0,1.75-1.64c.25-.3.46-.56.61-.76l-6-5.28-.31.51a11.15,11.15,0,0,1-1.18,1.13,10.41,10.41,0,0,1-1.84,1.28,15.17,15.17,0,0,1-2.66,1.13,12.54,12.54,0,0,1-3.38.46,11.4,11.4,0,0,1-8.5-3.48,11.89,11.89,0,0,1-3.38-8.66,11.82,11.82,0,0,1,3.38-8.6A11.4,11.4,0,0,1,317.3,8a12.57,12.57,0,0,1,3.17.41,9.15,9.15,0,0,1,2.46.92,19.64,19.64,0,0,1,1.74,1.18,7.71,7.71,0,0,1,1,.92,1.65,1.65,0,0,1,.3.41l6.2-5.38-.56-.61A12,12,0,0,0,329.9,4.3,23.88,23.88,0,0,0,327,2.46a16.35,16.35,0,0,0-4.2-1.54A23.17,23.17,0,0,0,317.4.31a19.81,19.81,0,0,0-14.49,5.83A19.17,19.17,0,0,0,297,20.33a19.08,19.08,0,0,0,5.74,14A19.52,19.52,0,0,0,317.09,40a23.32,23.32,0,0,0,5.84-.82" transform="translate(0.1 -0.31)"/></g><path class="cls-3" d="M346.84,20.69l16.23,18.69h10.19L355.19,19.1,372.14.82H362L346.84,18.38V.82h-8.45V39.38h8.45V20.69Z" transform="translate(0.1 -0.31)"/><path class="cls-3" d="M406.34,32.1H385.86V22.94h17.2V16.13h-17.2v-8h20V.82H377.46V39.38h28.93l-.05-7.28Z" transform="translate(0.1 -0.31)"/><path class="cls-3" d="M421.65,7.94h7.78a7,7,0,0,1,4.82,1.63,5.49,5.49,0,0,1,1.74,4.2,5.4,5.4,0,0,1-1.74,4.2,6.85,6.85,0,0,1-4.82,1.64h-7.78Zm0,18.17h5.94l8.65,13.27H446l-9.73-14.44a12.43,12.43,0,0,0,5.94-4.46,12.21,12.21,0,0,0,2.2-7.17,11.59,11.59,0,0,0-3.84-9,14.52,14.52,0,0,0-10-3.48H413.2V39.38h8.45Z" transform="translate(0.1 -0.31)"/><path class="cls-3" d="M271.88,8a2.91,2.91,0,0,1,1.28,5.53l1.18,6h-5l1.18-6A2.92,2.92,0,0,1,268.86,11a3,3,0,0,1,3-2.92m7.68,15.72L275,.36h-6.25l-4.56,23.4Z" transform="translate(0.1 -0.31)"/><path class="cls-3" d="M125.45,32.1V22.94h17.2V16.13h-25.6V39.38h28.88V32.1Z" transform="translate(0.1 -0.31)"/><rect class="cls-3" x="117.1" y="0.51" width="28.37" height="7.32"/></g></g></svg>